<?xml version="1.0" encoding="UTF-8" standalone="no"?>
<svg
   xmlns:dc="http://purl.org/dc/elements/1.1/"
   xmlns:cc="http://creativecommons.org/ns#"
   xmlns:rdf="http://www.w3.org/1999/02/22-rdf-syntax-ns#"
   xmlns:svg="http://www.w3.org/2000/svg"
   xmlns="http://www.w3.org/2000/svg"
   xmlns:sodipodi="http://sodipodi.sourceforge.net/DTD/sodipodi-0.dtd"
   xmlns:inkscape="http://www.inkscape.org/namespaces/inkscape"
   width="209.5"
   height="189.25"
   viewBox="0 0 167.6 151.4"
   version="1.1"
   id="svg2"
   inkscape:version="0.48.5 r10040"
   sodipodi:docname="chart_and_card.svg">
  <metadata
     id="metadata86">
    <rdf:RDF>
      <cc:Work
         rdf:about="">
        <dc:format>image/svg+xml</dc:format>
        <dc:type
           rdf:resource="http://purl.org/dc/dcmitype/StillImage" />
        <dc:title></dc:title>
      </cc:Work>
    </rdf:RDF>
  </metadata>
  <defs
     id="defs84" />
  <sodipodi:namedview
     pagecolor="#ffffff"
     bordercolor="#666666"
     borderopacity="1"
     objecttolerance="10"
     gridtolerance="10"
     guidetolerance="10"
     inkscape:pageopacity="0"
     inkscape:pageshadow="2"
     inkscape:window-width="1440"
     inkscape:window-height="837"
     id="namedview82"
     showgrid="false"
     inkscape:zoom="2.41"
     inkscape:cx="219.41438"
     inkscape:cy="100.49135"
     inkscape:window-x="-8"
     inkscape:window-y="-8"
     inkscape:window-maximized="1"
     inkscape:current-layer="svg2" />
  <path
     d="m 41.99,1.37 c 1.13,-1.59 3.23,-1.3 4.93,-1.44 25.72,0.05 51.45,0.1 77.18,0.03 0.17,1.73 0.35,3.46 0.53,5.19 -3.09,3.01 -5.66,6.52 -7.52,10.41 -3.69,7.52 -8.66,14.34 -12.19,21.95 -3.97,-2.4 -7.75,-5.13 -11.95,-7.15 -2.25,-0.89 -4.92,-1.05 -7.2,-0.18 -1.78,1.15 -3.17,2.78 -4.67,4.26 -2.88,2.5 -5.67,5.1 -8.09,8.06 -4.96,5.52 -13.2,9.86 -12.95,18.3 -6,0.36 -12.01,0.04 -18.01,0.11 -3.48,-0.25 -7.17,2.01 -7.43,5.72 -0.57,9.25 0.05,18.54 -0.25,27.8 0.13,3.66 -0.46,8.26 2.87,10.76 1.22,1.04 2.47,2.04 3.72,3.04 4.55,6.04 11.5,10.32 14.71,17.28 -0.72,5 -3.66,9.34 -5.68,13.89 -1.82,4.18 -5.2,7.28 -8.47,10.32 C 32.75,133.28 23.33,117.2 14.54,100.78 10.34,93.37 6.4,85.81 1.99,78.52 1.8,76.71 1.69,74.9 1.56,73.08 4.99,68.56 7.26,63.33 10.07,58.43 18.74,42.77 27.4,27.1 36.02,11.4 37.92,8.01 39.47,4.37 41.99,1.37 z"
     id="path12"
     inkscape:connector-curvature="0"
     style="fill:#00d5e4" />
  <path
     d="m 124.1,-0.04 c 2.68,0.49 4.17,2.81 5.34,5.04 11,20.23 22.25,40.33 33.49,60.42 1.6,2.96 3.52,5.8 4.54,9.03 0.04,1.71 -1.01,3.2 -1.68,4.71 -2.76,5.11 -5.65,10.15 -8.36,15.28 -6.38,-6.23 -13.46,-11.77 -19.01,-18.8 -0.48,1.24 -0.94,2.48 -1.45,3.71 -0.03,-2.92 -0.56,-6 -2.92,-7.98 C 120.3,57.75 106.7,43.99 92.97,30.36 c 4.2,2.02 7.98,4.75 11.95,7.15 3.53,-7.61 8.5,-14.43 12.19,-21.95 1.86,-3.89 4.43,-7.4 7.52,-10.41 -0.18,-1.73 -0.36,-3.46 -0.53,-5.19 z"
     id="path14"
     inkscape:connector-curvature="0"
     style="fill:#00ccd4" />
  <path
     d="m 85.77,30.18 c 2.28,-0.87 4.95,-0.71 7.2,0.18 13.73,13.63 27.33,27.39 41.08,41.01 2.36,1.98 2.89,5.06 2.92,7.98 -0.98,2.52 -3.14,4.27 -5.11,6.01 -16.98,-16.91 -34.1,-33.7 -50.76,-50.92 1.5,-1.48 2.89,-3.11 4.67,-4.26 z"
     id="path18"
     inkscape:connector-curvature="0"
     style="fill:#ffffff" />
  <path
     d="m 73.01,42.5 c 2.42,-2.96 5.21,-5.56 8.09,-8.06 16.66,17.22 33.78,34.01 50.76,50.92 -2.72,2.39 -5.33,4.91 -7.65,7.7 C 106.88,76.47 90.51,58.9 73.01,42.5 z"
     id="path22"
     inkscape:connector-curvature="0"
     style="fill:#8d6975" />
  <path
     d="m 60.06,60.8 c -0.25,-8.44 7.99,-12.78 12.95,-18.3 17.5,16.4 33.87,33.97 51.2,50.56 -3.34,4.09 -6.78,8.18 -10.92,11.5 -2.23,1.9 -5.35,1.29 -8.04,1.6 -0.28,-0.29 -0.84,-0.87 -1.13,-1.16 -3.22,-3.5 -6.51,-6.93 -10.07,-10.1 -1.92,-1.77 -3.83,-3.55 -5.7,-5.38 -2.12,-2.06 -4.22,-4.14 -6.29,-6.26 -1.83,-1.9 -3.66,-3.78 -5.56,-5.62 -3.04,-2.97 -6.21,-5.81 -9.13,-8.91 -2.4,-2.68 -4.69,-5.46 -7.31,-7.93 z"
     id="path30"
     inkscape:connector-curvature="0"
     style="fill:#fffffd" />
  <path
     d="m 72.38,52.65 c 0.41,-0.16 1.22,-0.48 1.63,-0.64 7.26,5.79 13.42,12.85 19.87,19.5 7.28,6.36 13.63,13.67 20.6,20.33 0.26,3.14 -3.2,5.22 -5.53,6.74 -1.97,-0.3 -3.12,-2.34 -4.55,-3.57 C 100.21,90.16 94.65,86.73 90.72,81.64 86,75.71 79.84,71.2 74.58,65.79 c -2.51,-2.58 -5.55,-4.92 -6.82,-8.42 0.86,-2.09 2.56,-3.79 4.62,-4.72 z"
     id="path36"
     inkscape:connector-curvature="0"
     style="fill:#ffbe54" />
  <path
     d="m 34.62,66.63 c 0.26,-3.71 3.95,-5.97 7.43,-5.72 -2.46,1.19 -5.66,2.44 -6.13,5.52 -0.95,5.91 -0.42,11.95 0.24,17.87 0.73,5.67 -0.17,11.43 0.78,17.07 0.36,3.4 4.41,3.47 7.03,3.68 20.05,0.08 40.11,0 60.15,-0.05 0.29,0.29 0.85,0.87 1.13,1.16 -14.02,1.59 -28.17,0.5 -42.25,0.78 -8.57,-0.41 -17.51,1.28 -25.76,-1.75 -3.33,-2.5 -2.74,-7.1 -2.87,-10.76 0.3,-9.26 -0.32,-18.55 0.25,-27.8 z"
     id="path40"
     inkscape:connector-curvature="0"
     style="fill:#839a9e" />
  <path
     d="m 35.92,66.43 c 0.47,-3.08 3.67,-4.33 6.13,-5.52 6,-0.07 12.01,0.25 18.01,-0.11 2.62,2.47 4.91,5.25 7.31,7.93 -1.88,0.18 -3.76,0.38 -5.64,0.58 -0.24,2.89 -0.42,5.8 -0.54,8.71 5.08,0.89 10.3,0.96 15.31,-0.38 1.9,1.84 3.73,3.72 5.56,5.62 C 66.8,84.68 51.41,82.72 36.16,84.3 35.5,78.38 34.97,72.34 35.92,66.43 z"
     id="path44"
     inkscape:connector-curvature="0"
     style="fill:#fffd71" />
  <path
     d="m 45.2,69.37 c 2.3,-0.45 4.66,-0.46 6.99,-0.66 -0.98,1.05 -1.95,2.11 -2.93,3.17 0.2,2.01 0.58,3.99 0.77,6.01 -2,-0.37 -4.69,0.46 -6,-1.54 -1.61,-2.09 -1.12,-5.56 1.17,-6.98 z"
     id="path48"
     inkscape:connector-curvature="0"
     style="fill:#b88a7a" />
  <path
     d="m 52.19,68.71 c 1.38,0.4 2.92,0.51 4.09,1.41 1.97,2.15 1.58,6.4 -1.41,7.44 -1.6,0.27 -3.23,0.24 -4.84,0.33 -0.19,-2.02 -0.57,-4 -0.77,-6.01 0.98,-1.06 1.95,-2.12 2.93,-3.17 z"
     id="path50"
     inkscape:connector-curvature="0"
     style="fill:#936877" />
  <path
     d="m 61.73,69.31 c 1.88,-0.2 3.76,-0.4 5.64,-0.58 2.92,3.1 6.09,5.94 9.13,8.91 -5.01,1.34 -10.23,1.27 -15.31,0.38 0.12,-2.91 0.3,-5.82 0.54,-8.71 z"
     id="path52"
     inkscape:connector-curvature="0"
     style="fill:#ff6849" />
  <path
     d="M 0,75.15 C 0.39,74.64 1.17,73.6 1.56,73.08 1.69,74.9 1.8,76.71 1.99,78.52 1.5,78.07 0.5,77.15 0,76.69 l 0,-1.54 z"
     id="path54"
     inkscape:connector-curvature="0"
     style="fill:#92e5e2" />
  <path
     d="m 138.42,75.64 c 5.55,7.03 12.63,12.57 19.01,18.8 -10.38,18.92 -20.57,37.95 -31.26,56.7 -14.53,0.21 -29.07,0.02 -43.61,0.18 C 76.25,143.23 68.22,136.66 61.4,129 c -3.25,-4.14 -5.18,-9.23 -8.94,-13 -3.13,-3.51 -7.29,-5.81 -11.5,-7.77 -1.25,-1 -2.5,-2 -3.72,-3.04 8.25,3.03 17.19,1.34 25.76,1.75 14.08,-0.28 28.23,0.81 42.25,-0.78 2.69,-0.31 5.81,0.3 8.04,-1.6 4.14,-3.32 7.58,-7.41 10.92,-11.5 2.32,-2.79 4.93,-5.31 7.65,-7.7 1.97,-1.74 4.13,-3.49 5.11,-6.01 0.51,-1.23 0.97,-2.47 1.45,-3.71 z"
     id="path56"
     inkscape:connector-curvature="0"
     style="fill:#00b8b5" />
  <path
     d="m 36.16,84.3 c 15.25,-1.58 30.64,0.38 45.9,-1.04 2.07,2.12 4.17,4.2 6.29,6.26 -0.53,0.89 -1.05,1.77 -1.59,2.66 -10.65,-0.74 -21.34,-0.81 -32.01,-0.77 -4.25,-0.28 -8.54,-0.24 -12.73,0.65 0.43,1.33 0.87,2.65 1.31,3.97 9.08,0.5 18.3,-0.98 27.26,1.03 -7.2,-0.39 -14.42,-0.23 -21.62,-0.29 -2.47,-0.1 -4.82,0.69 -7.06,1.64 4.33,2.39 9.36,1.58 14.09,1.67 4.31,-0.11 8.66,0.34 12.94,-0.32 0.41,-0.68 1.24,-2.03 1.65,-2.7 0.24,0.06 0.74,0.18 0.98,0.24 2.45,4.82 8.8,2.15 13.09,2.67 0.13,0.46 0.39,1.37 0.51,1.82 0.03,-2.42 -0.1,-4.84 -0.34,-7.25 3.07,0.23 6.14,0.35 9.22,0.36 3.56,3.17 6.85,6.6 10.07,10.1 -20.04,0.05 -40.1,0.13 -60.15,0.05 -2.62,-0.21 -6.67,-0.28 -7.03,-3.68 -0.95,-5.64 -0.05,-11.4 -0.78,-17.07 z"
     id="path64"
     inkscape:connector-curvature="0"
     style="fill:#ff6450" />
  <path
     d="m 88.35,89.52 c 1.87,1.83 3.78,3.61 5.7,5.38 -3.08,-0.01 -6.15,-0.13 -9.22,-0.36 0.24,2.41 0.37,4.83 0.34,7.25 -0.12,-0.45 -0.38,-1.36 -0.51,-1.82 C 84.36,99 84.05,98.03 83.73,97.06 79.68,96.61 75.61,97.01 71.57,97.3 71.33,97.24 70.83,97.12 70.59,97.06 61.63,95.05 52.41,96.53 43.33,96.03 c -0.44,-1.32 -0.88,-2.64 -1.31,-3.97 4.19,-0.89 8.48,-0.93 12.73,-0.65 10.67,-0.04 21.36,0.03 32.01,0.77 0.54,-0.89 1.06,-1.77 1.59,-2.66 z"
     id="path68"
     inkscape:connector-curvature="0"
     style="fill:#ffab5d" />
  <path
     d="m 41.91,98.41 c 2.24,-0.95 4.59,-1.74 7.06,-1.64 7.2,0.06 14.42,-0.1 21.62,0.29 -0.41,0.67 -1.24,2.02 -1.65,2.7 -4.28,0.66 -8.63,0.21 -12.94,0.32 -4.73,-0.09 -9.76,0.72 -14.09,-1.67 z"
     id="path70"
     inkscape:connector-curvature="0"
     style="fill:#fffcf4" />
  <path
     d="m 71.57,97.3 c 4.04,-0.29 8.11,-0.69 12.16,-0.24 0.32,0.97 0.63,1.94 0.93,2.91 -4.29,-0.52 -10.64,2.15 -13.09,-2.67 z"
     id="path72"
     inkscape:connector-curvature="0"
     style="fill:#fff7f1" />
  <path
     d="m 40.96,108.23 c 4.21,1.96 8.37,4.26 11.5,7.77 3.76,3.77 5.69,8.86 8.94,13 6.82,7.66 14.85,14.23 21.16,22.32 -0.49,0.02 -1.49,0.06 -1.99,0.08 l -38.46,0 c -0.14,-0.42 -0.44,-1.26 -0.59,-1.68 3.27,-3.04 6.65,-6.14 8.47,-10.32 2.02,-4.55 4.96,-8.89 5.68,-13.89 -3.21,-6.96 -10.16,-11.24 -14.71,-17.28 z"
     id="path76"
     inkscape:connector-curvature="0"
     style="fill:#00cdd2" />
</svg>
