<?xml version="1.0" encoding="UTF-8" standalone="no"?>
<svg
   xmlns:dc="http://purl.org/dc/elements/1.1/"
   xmlns:cc="http://creativecommons.org/ns#"
   xmlns:rdf="http://www.w3.org/1999/02/22-rdf-syntax-ns#"
   xmlns:svg="http://www.w3.org/2000/svg"
   xmlns="http://www.w3.org/2000/svg"
   xmlns:sodipodi="http://sodipodi.sourceforge.net/DTD/sodipodi-0.dtd"
   xmlns:inkscape="http://www.inkscape.org/namespaces/inkscape"
   width="209.5"
   height="190.25"
   viewBox="0 0 167.6 152.2"
   version="1.1"
   id="svg2"
   inkscape:version="0.48.5 r10040"
   sodipodi:docname="chart_and_card.svg">
  <metadata
     id="metadata86">
    <rdf:RDF>
      <cc:Work
         rdf:about="">
        <dc:format>image/svg+xml</dc:format>
        <dc:type
           rdf:resource="http://purl.org/dc/dcmitype/StillImage" />
        <dc:title></dc:title>
      </cc:Work>
    </rdf:RDF>
  </metadata>
  <defs
     id="defs84" />
  <sodipodi:namedview
     pagecolor="#ffffff"
     bordercolor="#666666"
     borderopacity="1"
     objecttolerance="10"
     gridtolerance="10"
     guidetolerance="10"
     inkscape:pageopacity="0"
     inkscape:pageshadow="2"
     inkscape:window-width="1440"
     inkscape:window-height="837"
     id="namedview82"
     showgrid="false"
     inkscape:snap-page="true"
     inkscape:zoom="2.1668067"
     inkscape:cx="282.54585"
     inkscape:cy="100.75705"
     inkscape:window-x="-8"
     inkscape:window-y="-8"
     inkscape:window-maximized="1"
     inkscape:current-layer="svg2" />
  <path
     d="m 42.049033,0 83.059997,0 c 0.72,1.19 1.39,2.41 2.06,3.64 -1.48,-0.53 -2.96,-1.07 -4.47,-1.52 -8.96,-0.6 -17.96,-0.06 -26.939997,-0.21 -10.35,0.3 -20.66,-0.78 -31,-0.61 -7.77,0.01 -15.57,0.39 -23.31,-0.52 l 0.6,-0.78 z"
     id="path6"
     inkscape:connector-curvature="0"
     style="fill:#18d1d4" />
  <path
     d="M 6.8390331,62.05 C 18.609033,41.76 29.239033,20.8 41.449033,0.78 c 7.74,0.91 15.54,0.53 23.31,0.52 10.34,-0.17 20.65,0.91 31,0.61 8.979997,0.15 17.979997,-0.39 26.939997,0.21 0.69,1.32 1.36,2.65 2.04,3.98 -2.83,3.16 -5.94,6.14 -8.03,9.87 -1.91,3.58 -2.94,7.56 -4.96,11.08 -1.77,2.98 -4.06,5.6 -6.19,8.31 -14.929997,0.14 -29.859997,0.12 -44.789997,0.03 -4.06,0.11 -8.57,-0.79 -12.15,1.64 -3.29,2.23 -5.33,5.91 -5.26,9.91 -0.13,19.02 0.05,38.05 -0.05,57.07 0.04,2.28 -0.1,4.61 0.5,6.83 0.78,4.97 5.41,8.01 10.26,7.78 0.35,1.15 1.43,2.25 0.97,3.51 -1.69,0.32 -3.42,0.34 -5.13,0.5 0.02,0.49 0.05,1.45 0.07,1.93 1.51,0.27 3.03,0.53 4.55,0.79 -1.63,4.91 -3.61,9.71 -6.37,14.11 -2.23,3.55 -3.55,8.12 -7.65,10.01 -12.97,-22.54 -25.3,-45.46 -38.3399999,-67.96 -1.25,-2.37 -3.02,-5.14 -1.68,-7.85 1.73,-4.07 4.26,-7.72 6.35,-11.61 z"
     id="path10"
     inkscape:connector-curvature="0"
     style="fill:#00d4e2" />
  <path
     d="m 122.69903,2.12 c 1.51,0.45 2.99,0.99 4.47,1.52 10.05,18.26 20.23,36.45 30.36,54.66 3.34,5.82 6.17,11.95 10.23,17.33 l 0,0.75 c -1.32,1.59 -2.64,3.18 -3.77,4.92 -4.71,-4.14 -8.39,-9.3 -13.2,-13.33 -5.99,-5.02 -10.34,-11.71 -16.74,-16.28 -5.05,-3.54 -5.89,-10.6 -11.28,-13.81 -5.12,-3.28 -11.45,-2.47 -17.21,-2.52 2.13,-2.71 4.42,-5.33 6.19,-8.31 2.02,-3.52 3.05,-7.5 4.96,-11.08 2.09,-3.73 5.2,-6.71 8.03,-9.87 -0.68,-1.33 -1.35,-2.66 -2.04,-3.98 z"
     id="path16"
     inkscape:connector-curvature="0"
     style="fill:#00ccd1" />
  <path
     d="m 48.619033,37.03 c 3.58,-2.43 8.09,-1.53 12.15,-1.64 14.93,0.09 29.86,0.11 44.789997,-0.03 5.76,0.05 12.09,-0.76 17.21,2.52 1.9,3 2.94,6.48 2.83,10.05 0,20.05 0.05,40.1 0,60.14 0.28,3.93 -2.07,7.56 -5.62,9.15 l -0.96,0.06 c 2.64,-2.45 5.57,-5.28 5.24,-9.23 0.11,-19.34 -0.09,-38.7 0.07,-58.05 -0.11,-3.66 0.11,-8.03 -2.84,-10.73 -3.18,-2.82 -7.76,-2.56 -11.73,-2.65 -20.379997,0.31 -40.769997,-0.31 -61.139997,0.41 z"
     id="path20"
     inkscape:connector-curvature="0"
     style="fill:#8ac191" />
  <path
     d="m 48.619033,37.03 c 20.37,-0.72 40.76,-0.1 61.139997,-0.41 3.97,0.09 8.55,-0.17 11.73,2.65 2.95,2.7 2.73,7.07 2.84,10.73 -0.16,19.35 0.04,38.71 -0.07,58.05 0.33,3.95 -2.6,6.78 -5.24,9.23 -20.079997,0.22 -40.169997,0 -60.249997,0.15 -3.13,-0.08 -6.41,0.08 -9.38,-1.09 -2.36,-1.23 -3.97,-3.46 -5.58,-5.5 -0.6,-2.22 -0.46,-4.55 -0.5,-6.83 0.1,-19.02 -0.08,-38.05 0.05,-57.07 -0.07,-4 1.97,-7.68 5.26,-9.91 z"
     id="path24"
     inkscape:connector-curvature="0"
     style="fill:#ffc765" />
  <path
     d="m 122.76903,37.88 c 5.39,3.21 6.23,10.27 11.28,13.81 6.4,4.57 10.75,11.26 16.74,16.28 4.81,4.03 8.49,9.19 13.2,13.33 -12.22,22.38 -24.79,44.57 -37.07,66.92 -1.3,3.29 -5.22,2.91 -8.12,3.07 -11.99,-0.01 -23.969997,0.07 -35.959997,0.05 -7.11,-8.97 -16.08,-16.22 -23.84,-24.59 -2.08,-2.14 -2.05,-5.27 -2.38,-8.03 16.38,-0.16 32.76,-0.07 49.139997,-0.07 4.74,-0.1 9.81,0.79 14.22,-1.43 3.55,-1.59 5.9,-5.22 5.62,-9.15 0.05,-20.04 0,-40.09 0,-60.14 0.11,-3.57 -0.93,-7.05 -2.83,-10.05 z"
     id="path26"
     inkscape:connector-curvature="0"
     style="fill:#00b7b5" />
  <path
     d="m 49.089033,45.19 c 0.3,-2.61 3.28,-3.75 5.6,-3.64 19.02,-0.05 38.05,0.04 57.069997,-0.03 2.19,0.05 4.48,0.01 6.54,0.91 1.47,1.81 1.44,4.32 1.67,6.53 0.35,18.02 -0.14,36.03 0.17,54.05 -0.1,3.16 0.33,7.89 -3.52,9.02 -3.56,0.81 -7.25,0.39 -10.86,0.42 -13.329997,-0.08 -26.669997,-0.01 -39.999997,-0.03 -5.55,-0.07 -11.37,0.86 -16.58,-1.6 -0.39,-6.26 -0.93,-12.54 -0.44,-18.82 0.56,-6.33 -0.29,-12.67 0.09,-19 0.48,-9.26 -1.09,-18.59 0.26,-27.81 z"
     id="path28"
     inkscape:connector-curvature="0"
     style="fill:#ffffff" />
  <path
     d="m 109.97903,50.02 c -1.96,-1.69 0.18,-3.39 1.86,-4.13 1.6,-0.25 2.83,1.24 3.66,2.42 -0.06,2.22 -2.16,3.59 -3.38,5.22 -0.69,-1.18 -1.43,-2.34 -2.14,-3.51 z"
     id="path32"
     inkscape:connector-curvature="0"
     style="fill:#e2ab95" />
  <path
     d="m 109.97903,50.02 c 0.71,1.17 1.45,2.33 2.14,3.51 0.7,1.09 -0.17,2.42 -0.29,3.57 -2.1,7.12 -3.95,14.34 -5.13,21.68 -1.49,-1.93 -3.46,-1.35 -5.14,-0.02 -1.24,-3.27 -2.909997,-6.36 -4.809997,-9.29 -2.68,5.59 -4.38,11.57 -6.09,17.51 -1.02,-1.34 -2.02,-2.68 -3.12,-3.96 -0.57,1.61 -1.1,3.24 -1.68,4.84 0.04,-3.22 -0.52,-6.41 -1.43,-9.49 -1.26,-4.24 -1.86,-8.75 -4.17,-12.61 -2.19,9.69 -4.61,19.39 -5.74,29.27 -0.55,-1.64 -1.03,-3.3 -1.58,-4.94 -0.99,1.63 -1.94,3.28 -2.87,4.95 -1.56,-5.16 -2.92,-10.44 -5.44,-15.24 -3.02,7.42 -4.62,15.33 -6.15,23.17 -0.35,-0.8 -0.69,-1.59 -1.03,-2.39 -0.41,0.07 -1.23,0.2 -1.64,0.27 2.12,-8.87 5.33,-17.57 6.07,-26.71 0.49,1.14 0.98,2.28 1.48,3.42 0.49,0.02 1.46,0.07 1.94,0.09 0.43,-0.88 0.85,-1.77 1.27,-2.67 1.45,4.94 2.75,9.97 5.19,14.53 1.86,-4.79 2.7,-9.88 3.67,-14.91 1.02,-5.46 2.74,-10.87 2.44,-16.49 0.59,1.84 1.18,3.68 1.72,5.53 0.35,-0.01 1.04,-0.03 1.38,-0.04 0.49,-1.55 1.04,-3.07 1.58,-4.6 1.56,7.67 2.86,15.55 6.13,22.72 2.65,-4.76 4.35,-10.01 5.08,-15.4 1.36,1.18 2.85,2.2 4.39,3.14 0.18,-1.91 0.54,-3.79 0.8,-5.69 0.41,4.36 1.989997,8.53 4.759997,11.93 2.71,-8.36 5.6,-16.87 6.27,-25.68 z"
     id="path34"
     inkscape:connector-curvature="0"
     style="fill:#ffb9ab" />
  <path
     d="m 77.079033,55.86 c 1.15,-0.63 2.2,-1.65 3.56,-1.78 1.04,0.57 2.02,1.24 3.01,1.9 -0.4,0.99 -0.76,2 -1.1,3.02 -0.54,1.53 -1.09,3.05 -1.58,4.6 -0.34,0.01 -1.03,0.03 -1.38,0.04 -0.54,-1.85 -1.13,-3.69 -1.72,-5.53 -0.2,-0.56 -0.59,-1.68 -0.79,-2.25 z"
     id="path38"
     inkscape:connector-curvature="0"
     style="fill:#daa995" />
  <path
     d="m 92.509033,65.17 c 1.46,-2.41 3.79,-3.61 6.55,-2.55 l -0.11,1.15 c -0.26,1.9 -0.62,3.78 -0.8,5.69 -1.54,-0.94 -3.03,-1.96 -4.39,-3.14 -0.31,-0.29 -0.94,-0.87 -1.25,-1.15 z"
     id="path42"
     inkscape:connector-curvature="0"
     style="fill:#e0a694" />
  <path
     d="m 60.899033,71.98 c 1.65,-1.13 4.04,-3.03 5.68,-0.76 1.63,0.88 0.44,2.53 -0.01,3.76 -0.42,0.9 -0.84,1.79 -1.27,2.67 -0.48,-0.02 -1.45,-0.07 -1.94,-0.09 -0.5,-1.14 -0.99,-2.28 -1.48,-3.42 -0.25,-0.54 -0.74,-1.62 -0.98,-2.16 z"
     id="path46"
     inkscape:connector-curvature="0"
     style="fill:#d9ab97" />
  <path
     d="m 101.55903,78.76 c 1.68,-1.33 3.65,-1.91 5.14,0.02 1.51,1.97 0.47,4.79 -2.02,5.06 -2.77,0.47 -3.91,-2.89 -3.12,-5.08 z"
     id="path58"
     inkscape:connector-curvature="0"
     style="fill:#e4a28e" />
  <path
     d="m 87.539033,83.02 c 1.1,1.28 2.1,2.62 3.12,3.96 0.72,1.14 1.37,2.96 -0.1,3.8 -1.57,2.15 -3.92,0.31 -5.52,-0.74 0.21,-0.54 0.61,-1.64 0.82,-2.18 0.58,-1.6 1.11,-3.23 1.68,-4.84 z"
     id="path62"
     inkscape:connector-curvature="0"
     style="fill:#e6a590" />
  <path
     d="m 70.069033,95.04 c 0.93,-1.67 1.88,-3.32 2.87,-4.95 0.55,1.64 1.03,3.3 1.58,4.94 0.37,1.02 0.73,2.04 1.09,3.07 -0.97,0.59 -1.94,1.2 -2.97,1.68 -1.54,-0.01 -2.68,-1.3 -4.01,-1.91 0.47,-0.94 0.95,-1.89 1.44,-2.83 z"
     id="path66"
     inkscape:connector-curvature="0"
     style="fill:#dea68c" />
  <path
     d="m 55.809033,100.85 c 0.41,-0.07 1.23,-0.2 1.64,-0.27 0.34,0.8 0.68,1.59 1.03,2.39 0.44,1 0.87,2.01 1.31,3.02 -1.69,1.18 -4.17,3.1 -5.88,0.81 -2.18,-1.9 0.9,-4.26 1.9,-5.95 z"
     id="path74"
     inkscape:connector-curvature="0"
     style="fill:#e4ac92" />
  <path
     d="m 43.809033,110.84 c 1.61,2.04 3.22,4.27 5.58,5.5 2.97,1.17 6.25,1.01 9.38,1.09 20.08,-0.15 40.17,0.07 60.249997,-0.15 l 0.96,-0.06 c -4.41,2.22 -9.48,1.33 -14.22,1.43 -16.379997,0 -32.759997,-0.09 -49.139997,0.07 -0.63,-0.02 -1.91,-0.07 -2.55,-0.1 -4.85,0.23 -9.48,-2.81 -10.26,-7.78 z"
     id="path78"
     inkscape:connector-curvature="0"
     style="fill:#73b788" />
  <path
     d="m 54.069033,118.62 c 0.64,0.03 1.92,0.08 2.55,0.1 0.33,2.76 0.3,5.89 2.38,8.03 7.76,8.37 16.73,15.62 23.84,24.59 -13.72,0.06 -27.45,0.25 -41.17,0.03 -0.29,-0.47 -0.87,-1.43 -1.16,-1.9 4.1,-1.89 5.42,-6.46 7.65,-10.01 2.76,-4.4 4.74,-9.2 6.37,-14.11 -1.52,-0.26 -3.04,-0.52 -4.55,-0.79 -0.02,-0.48 -0.05,-1.44 -0.07,-1.93 1.71,-0.16 3.44,-0.18 5.13,-0.5 0.46,-1.26 -0.62,-2.36 -0.97,-3.51 z"
     id="path80"
     inkscape:connector-curvature="0"
     style="fill:#00ccd1" />
</svg>
