<?xml version="1.0" encoding="UTF-8" ?>
<!DOCTYPE svg PUBLIC "-//W3C//DTD SVG 1.1//EN" "http://www.w3.org/Graphics/SVG/1.1/DTD/svg11.dtd">
<svg width="95pt" height="87pt" viewBox="0 0 95 87" version="1.1" xmlns="http://www.w3.org/2000/svg">
<path fill="#00b6b8" d=" M 25.21 1.13 C 40.66 1.28 56.11 1.10 71.56 1.20 C 73.09 4.10 74.64 6.98 76.17 9.86 C 77.49 12.80 78.80 15.76 80.80 18.31 C 84.24 24.66 87.85 30.92 91.13 37.35 C 91.22 40.18 92.66 42.57 94.37 44.71 C 93.82 45.87 93.27 47.02 92.68 48.16 C 89.22 44.60 85.14 41.74 81.45 38.44 C 78.53 35.82 78.00 30.63 73.62 29.85 C 68.54 30.28 63.79 28.14 58.74 28.23 C 58.28 26.09 58.52 23.92 58.97 21.81 C 64.52 18.72 65.70 11.74 69.60 7.15 C 69.20 5.92 68.81 4.69 68.44 3.45 C 53.58 3.16 38.70 3.25 23.83 3.28 C 24.17 2.74 24.86 1.67 25.21 1.13 Z" />
<path fill="#00bbc5" d=" M 23.83 3.28 C 38.70 3.25 53.58 3.16 68.44 3.45 C 68.81 4.69 69.20 5.92 69.60 7.15 C 65.70 11.74 64.52 18.72 58.97 21.81 C 52.37 19.55 44.94 19.81 38.23 21.58 C 38.42 22.41 38.60 23.23 38.78 24.06 C 39.02 25.46 39.08 26.87 39.15 28.29 C 36.40 28.23 33.48 27.95 30.95 29.26 C 28.59 30.60 25.87 30.45 23.27 30.29 C 23.46 42.64 22.65 55.05 23.54 67.36 C 24.00 67.78 24.92 68.62 25.38 69.04 C 27.13 70.75 29.39 72.10 30.54 74.31 C 30.16 77.83 28.69 81.20 26.54 84.01 C 25.99 83.06 25.44 82.12 24.88 81.17 C 23.13 81.25 21.71 80.13 20.37 79.15 C 18.55 76.07 16.85 72.91 15.28 69.69 C 15.85 67.67 14.65 65.57 12.65 65.00 C 8.60 58.08 4.94 50.94 1.00 43.96 C 4.27 38.58 7.01 32.89 10.38 27.58 C 10.41 27.52 10.47 27.41 10.50 27.36 C 14.74 19.23 19.35 11.28 23.83 3.28 Z" />
<path fill="#5a3d40" d=" M 76.17 9.86 C 77.74 12.66 79.33 15.45 80.80 18.31 C 78.80 15.76 77.49 12.80 76.17 9.86 Z" />
<path fill="#5a3d40" d=" M 38.23 21.58 C 44.94 19.81 52.37 19.55 58.97 21.81 C 58.52 23.92 58.28 26.09 58.74 28.23 C 63.79 28.14 68.54 30.28 73.62 29.85 C 73.62 33.30 73.52 36.74 73.55 40.18 C 73.54 40.56 73.53 41.32 73.52 41.70 C 72.96 44.78 72.62 47.91 72.76 51.05 C 72.97 56.28 72.24 61.49 72.58 66.72 C 71.43 67.21 70.23 67.64 68.96 67.53 C 53.83 67.74 38.67 68.17 23.54 67.36 C 22.65 55.05 23.46 42.64 23.27 30.29 C 25.87 30.45 28.59 30.60 30.95 29.26 C 33.48 27.95 36.40 28.23 39.15 28.29 L 39.92 28.97 C 39.98 28.20 40.09 26.67 40.15 25.90 C 40.52 26.77 41.25 28.51 41.62 29.38 C 46.03 31.03 50.68 30.09 55.16 29.31 C 55.54 28.64 56.31 27.30 56.69 26.64 C 56.97 27.44 57.53 29.05 57.81 29.86 C 57.90 27.64 57.97 25.42 58.01 23.20 C 57.75 23.01 57.22 22.62 56.96 22.43 C 56.92 23.00 56.84 24.14 56.80 24.70 C 56.38 24.46 55.53 23.97 55.11 23.72 L 54.72 23.51 C 49.81 23.35 44.37 22.35 39.76 24.36 L 39.98 22.03 L 38.78 24.06 C 38.60 23.23 38.42 22.41 38.23 21.58 Z" />
<path fill="#ffffff" d=" M 56.96 22.43 C 57.22 22.62 57.75 23.01 58.01 23.20 C 57.97 25.42 57.90 27.64 57.81 29.86 C 57.53 29.05 56.97 27.44 56.69 26.64 C 56.72 26.15 56.77 25.19 56.80 24.70 C 56.84 24.14 56.92 23.00 56.96 22.43 Z" />
<path fill="#ffffff" d=" M 39.98 22.03 L 39.76 24.36 C 44.37 22.35 49.81 23.35 54.72 23.51 L 55.11 23.72 C 50.12 24.15 44.91 22.81 40.16 24.94 L 40.15 25.90 C 40.09 26.67 39.98 28.20 39.92 28.97 L 39.15 28.29 C 39.08 26.87 39.02 25.46 38.78 24.06 L 39.98 22.03 Z" />
<path fill="#00b1ac" d=" M 40.16 24.94 C 44.91 22.81 50.12 24.15 55.11 23.72 C 55.53 23.97 56.38 24.46 56.80 24.70 C 56.77 25.19 56.72 26.15 56.69 26.64 C 56.31 27.30 55.54 28.64 55.16 29.31 C 50.68 30.09 46.03 31.03 41.62 29.38 C 41.25 28.51 40.52 26.77 40.15 25.90 L 40.16 24.94 Z" />
<path fill="#479c94" d=" M 10.38 27.58 C 10.41 27.52 10.47 27.41 10.50 27.36 C 10.47 27.41 10.41 27.52 10.38 27.58 Z" />
<path fill="#977e7e" d=" M 31.78 30.67 C 33.45 30.60 35.11 30.50 36.78 30.37 L 36.96 30.75 C 37.55 32.66 38.99 34.38 41.12 34.49 C 44.03 33.84 47.00 32.94 49.43 31.15 L 50.01 30.74 C 56.76 30.32 63.55 30.31 70.31 30.74 C 70.16 32.27 71.05 33.61 71.86 34.82 L 72.38 35.63 C 67.51 36.14 62.63 35.93 57.76 35.64 C 46.88 36.26 35.98 35.31 25.09 35.86 L 24.99 35.06 C 27.43 34.05 31.61 34.09 31.78 30.67 Z" />
<path fill="#b5749c" d=" M 36.96 30.75 C 41.11 30.43 45.30 30.60 49.43 31.15 C 47.00 32.94 44.03 33.84 41.12 34.49 C 38.99 34.38 37.55 32.66 36.96 30.75 Z" />
<path fill="#00a9a7" d=" M 73.62 29.85 C 78.00 30.63 78.53 35.82 81.45 38.44 C 85.14 41.74 89.22 44.60 92.68 48.16 C 91.69 50.05 90.65 51.91 89.55 53.73 C 86.43 55.10 85.20 58.49 85.11 61.68 C 84.96 61.94 84.65 62.48 84.50 62.75 C 83.02 63.82 81.54 64.99 80.81 66.73 C 79.10 70.46 76.39 73.86 76.02 78.08 C 75.85 78.37 75.51 78.96 75.34 79.25 C 72.79 80.11 71.73 82.49 70.72 84.75 C 62.83 85.13 54.92 84.96 47.02 84.96 C 45.27 84.82 43.61 85.33 42.22 86.39 C 36.25 86.54 30.29 86.23 24.32 86.29 C 22.96 83.93 21.70 81.52 20.37 79.15 C 21.71 80.13 23.13 81.25 24.88 81.17 C 25.44 82.12 25.99 83.06 26.54 84.01 C 28.69 81.20 30.16 77.83 30.54 74.31 C 29.39 72.10 27.13 70.75 25.38 69.04 C 39.59 69.11 53.81 69.18 68.02 69.09 C 70.04 69.11 72.02 68.63 73.93 68.04 C 75.98 66.35 75.05 63.35 75.24 61.03 C 74.52 52.98 75.34 44.91 74.83 36.86 C 74.39 37.96 73.96 39.07 73.55 40.18 C 73.52 36.74 73.62 33.30 73.62 29.85 Z" />
<path fill="#6f5b66" d=" M 24.66 47.25 C 24.60 41.90 24.17 36.52 24.59 31.19 C 24.72 32.48 24.86 33.77 24.99 35.06 L 25.09 35.86 C 35.98 35.31 46.88 36.26 57.76 35.64 C 62.63 35.93 67.51 36.14 72.38 35.63 C 72.47 39.76 72.69 43.89 72.29 48.01 C 70.45 48.20 68.61 48.46 66.76 48.58 C 63.86 48.69 60.96 48.80 58.07 48.59 C 57.10 48.42 56.14 48.19 55.19 47.92 C 54.68 46.74 54.16 45.57 53.65 44.40 C 50.54 43.89 47.39 43.94 44.26 44.12 C 44.04 44.58 43.60 45.49 43.38 45.95 C 42.47 47.44 41.01 48.99 39.06 48.54 C 34.28 48.11 29.09 49.59 24.66 47.25 Z" />
<path fill="#ab749c" d=" M 24.59 31.19 C 27.00 31.12 29.37 30.64 31.78 30.67 C 31.61 34.09 27.43 34.05 24.99 35.06 C 24.86 33.77 24.72 32.48 24.59 31.19 Z" />
<path fill="#ae759d" d=" M 70.31 30.74 C 72.38 29.60 73.19 33.69 71.86 34.82 C 71.05 33.61 70.16 32.27 70.31 30.74 Z" />
<path fill="#1ca7a0" d=" M 73.55 40.18 C 73.96 39.07 74.39 37.96 74.83 36.86 C 75.34 44.91 74.52 52.98 75.24 61.03 C 75.05 63.35 75.98 66.35 73.93 68.04 C 74.08 59.26 74.22 50.46 73.52 41.70 C 73.53 41.32 73.54 40.56 73.55 40.18 Z" />
<path fill="#27a299" d=" M 91.13 37.35 C 92.48 39.61 93.83 41.87 95.00 44.23 L 95.00 45.63 L 94.37 44.71 C 92.66 42.57 91.22 40.18 91.13 37.35 Z" />
<path fill="#0e5756" d=" M 72.76 51.05 C 72.62 47.91 72.96 44.78 73.52 41.70 C 74.22 50.46 74.08 59.26 73.93 68.04 C 72.02 68.63 70.04 69.11 68.02 69.09 C 53.81 69.18 39.59 69.11 25.38 69.04 C 24.92 68.62 24.00 67.78 23.54 67.36 C 38.67 68.17 53.83 67.74 68.96 67.53 C 70.23 67.64 71.43 67.21 72.58 66.72 C 72.24 61.49 72.97 56.28 72.76 51.05 Z" />
<path fill="#fffffb" d=" M 43.38 45.95 C 46.60 45.24 49.91 45.54 53.17 45.56 C 53.35 47.09 53.30 48.60 53.04 50.11 C 49.95 50.49 46.79 50.71 43.73 50.03 C 43.62 48.67 43.51 47.31 43.38 45.95 Z" />
<path fill="#4a252b" d=" M 58.07 48.59 C 60.96 48.80 63.86 48.69 66.76 48.58 C 68.31 48.51 69.87 48.86 71.19 49.70 C 66.85 50.31 62.44 49.62 58.11 50.35 C 58.10 49.91 58.08 49.03 58.07 48.59 Z" />
<path fill="#fffaf3" d=" M 44.68 50.51 C 45.59 50.61 47.42 50.80 48.33 50.90 C 48.34 51.50 48.36 52.70 48.37 53.30 C 48.45 52.67 48.62 51.40 48.70 50.77 C 49.57 50.73 51.30 50.66 52.17 50.62 C 52.19 51.48 52.24 53.21 52.26 54.07 C 49.81 54.30 47.35 54.24 44.90 54.23 C 44.85 53.30 44.74 51.44 44.68 50.51 Z" />
<path fill="#208a7f" d=" M 85.11 61.68 C 85.20 58.49 86.43 55.10 89.55 53.73 C 88.14 56.42 86.69 59.09 85.11 61.68 Z" />
<path fill="#1d9184" d=" M 80.81 66.73 C 81.54 64.99 83.02 63.82 84.50 62.75 C 81.77 67.91 79.00 73.06 76.02 78.08 C 76.39 73.86 79.10 70.46 80.81 66.73 Z" />
<path fill="#5a3d40" d=" M 12.65 65.00 C 14.65 65.57 15.85 67.67 15.28 69.69 C 14.02 68.37 13.25 66.70 12.65 65.00 Z" />
<path fill="#0b887d" d=" M 70.72 84.75 C 71.73 82.49 72.79 80.11 75.34 79.25 C 73.98 81.75 72.68 84.28 71.20 86.71 C 61.54 86.54 51.88 86.56 42.22 86.39 C 43.61 85.33 45.27 84.82 47.02 84.96 C 54.92 84.96 62.83 85.13 70.72 84.75 Z" />
</svg>
